<svg width="512" height="512" viewBox="0 0 512 512" xmlns="http://www.w3.org/2000/svg">
  <!-- Background circle -->
  <circle cx="256" cy="256" r="240" fill="#007bff" stroke="#ffffff" stroke-width="8"/>
  
  <!-- QR Code pattern representation -->
  <g transform="translate(156, 156)">
    <!-- Outer frame -->
    <rect x="0" y="0" width="200" height="200" fill="white" rx="8"/>
    
    <!-- QR code blocks -->
    <rect x="20" y="20" width="20" height="20" fill="#007bff"/>
    <rect x="60" y="20" width="20" height="20" fill="#007bff"/>
    <rect x="100" y="20" width="20" height="20" fill="#007bff"/>
    <rect x="140" y="20" width="20" height="20" fill="#007bff"/>
    <rect x="180" y="20" width="20" height="20" fill="#007bff"/>
    
    <rect x="20" y="60" width="20" height="20" fill="#007bff"/>
    <rect x="180" y="60" width="20" height="20" fill="#007bff"/>
    
    <rect x="20" y="100" width="20" height="20" fill="#007bff"/>
    <rect x="60" y="100" width="20" height="20" fill="#007bff"/>
    <rect x="100" y="100" width="20" height="20" fill="#007bff"/>
    <rect x="140" y="100" width="20" height="20" fill="#007bff"/>
    <rect x="180" y="100" width="20" height="20" fill="#007bff"/>
    
    <rect x="20" y="140" width="20" height="20" fill="#007bff"/>
    <rect x="180" y="140" width="20" height="20" fill="#007bff"/>
    
    <rect x="20" y="180" width="20" height="20" fill="#007bff"/>
    <rect x="60" y="180" width="20" height="20" fill="#007bff"/>
    <rect x="100" y="180" width="20" height="20" fill="#007bff"/>
    <rect x="140" y="180" width="20" height="20" fill="#007bff"/>
    <rect x="180" y="180" width="20" height="20" fill="#007bff"/>
    
    <!-- Corner markers -->
    <rect x="40" y="40" width="40" height="40" fill="white"/>
    <rect x="120" y="40" width="40" height="40" fill="white"/>
    <rect x="40" y="120" width="40" height="40" fill="white"/>
    <rect x="120" y="120" width="40" height="40" fill="white"/>
    
    <rect x="50" y="50" width="20" height="20" fill="#007bff"/>
    <rect x="130" y="50" width="20" height="20" fill="#007bff"/>
    <rect x="50" y="130" width="20" height="20" fill="#007bff"/>
    <rect x="130" y="130" width="20" height="20" fill="#007bff"/>
  </g>
  
  <!-- Scanner lines overlay -->
  <line x1="100" y1="256" x2="412" y2="256" stroke="#ff0000" stroke-width="2" opacity="0.8"/>
  <line x1="256" y1="100" x2="256" y2="412" stroke="#ff0000" stroke-width="2" opacity="0.8"/>
</svg> 